<?xml version="1.0" encoding="utf-8"?>
<!-- Generator: Adobe Illustrator 22.1.0, SVG Export Plug-In . SVG Version: 6.00 Build 0)  -->
<svg version="1.2" baseProfile="tiny" xmlns="http://www.w3.org/2000/svg" xmlns:xlink="http://www.w3.org/1999/xlink" x="0px"
	 y="0px" viewBox="0 0 1200 114.145" xml:space="preserve">
<g id="elements">
</g>
<g id="Franck">
</g>
<g id="Grotte">
	<polygon fill="#3B3B3B" points="1053.743,42.026 1058.042,37.423 1066.08,33.827 1072.068,33.048 1093.296,33.048 1101.027,40.498 
		1101.027,43.297 1053.743,43.864 	"/>
	<polygon fill="#3B3B3B" points="879.662,58.111 893.304,43.505 918.804,32.097 937.804,29.625 1005.156,29.625 1029.684,53.262 
		1029.684,62.144 879.662,63.943 	"/>
	<polygon fill="#3B3B3B" points="1027.035,57.898 1036.39,47.883 1053.875,40.061 1066.904,38.365 1113.089,38.365 1129.907,54.574 
		1129.907,60.664 1027.035,61.898 	"/>
	<polygon fill="#3B3B3B" points="95.804,57.011 122.804,37.776 139.804,29.776 165.804,26.276 182.304,30.776 199.804,41.644 
		217.304,67.644 92.304,63.269 	"/>
	<polygon fill="#3B3B3B" points="1026.575,51.002 1039.931,19.663 1046.293,4.441 1051.348,0.816 1056.91,0.816 1059.69,7.34 
		1058.426,29.086 1058.679,52.09 	"/>
	<polygon fill="#3B3B3B" points="1004.975,54.8 1010.152,34.146 1020.28,17.112 1025.501,10.226 1033.56,10.226 1035.135,27.623 
		1036.036,51.653 1026.583,57.971 	"/>
	<polygon fill="#3B3B3B" points="79.926,44.375 91.176,6.875 99.176,0 108.676,0 109.676,19.875 107.426,56.443 76.461,55.375 	"/>
	<polygon fill="#3B3B3B" points="103.676,55.125 116.176,29.375 123.676,29.375 125.176,56.443 	"/>
	
		<rect x="0" y="56.61" transform="matrix(-1 -1.224647e-16 1.224647e-16 -1 1200 138.1528)" fill="#212121" width="1200" height="24.934"/>
	<polygon fill="#212121" points="356.304,53.276 409.304,51.36 511.69,56.193 526.804,68.625 347.804,72.625 	"/>
	<polygon fill="#212121" points="964.681,45.315 1015.318,42.61 1113.139,49.432 1127.578,66.979 956.56,72.625 	"/>
	<polygon fill="#212121" points="169.527,54.093 209.86,38.776 323.527,38.776 387.027,54.093 399.027,63.943 150.027,63.943 	"/>
	<polygon fill="#212121" points="417.488,58.695 405.725,46.076 372.574,46.076 354.054,58.695 350.554,66.81 423.176,66.81 	"/>
	<polygon fill="#212121" points="43.819,57.727 74.827,45.153 186.857,42.61 211.084,63.943 38.376,63.943 	"/>
	<polygon fill="#212121" points="722.074,57.727 700.126,45.153 620.826,42.61 603.677,63.943 725.927,63.943 	"/>
	<polygon fill="#212121" points="902.281,59.917 915.922,51.772 965.208,50.125 975.867,63.943 899.887,63.943 	"/>
	<rect x="1050.616" y="63.943" width="149.384" height="50.202"/>
	<rect y="63.943" width="206.637" height="50.202"/>
	<polygon points="420.748,114.145 198.554,114.145 198.554,67.644 420.748,72.625 	"/>
	<rect x="350.554" y="72.625" width="379.75" height="41.52"/>
	<g>
		<polygon points="323.096,72.277 320.096,61.61 307.792,53.277 295.429,50.943 282.762,54.61 268.096,72.277 		"/>
		<polygon fill="#3B3B3B" points="287.429,57.443 300.096,53.776 311.788,55.983 307.792,53.277 295.429,50.943 282.762,54.61 
			268.096,72.277 275.114,72.277 		"/>
	</g>
	<g>
		<polygon points="146.845,63.943 178.845,48.943 189.511,50.943 202.845,57.943 209.178,63.943 		"/>
		<polygon points="209.178,63.943 202.845,57.943 189.511,50.943 178.845,48.943 146.845,63.943 		"/>
		<polygon points="209.178,63.943 202.845,57.943 189.511,50.943 178.845,48.943 146.845,63.943 		"/>
		<polygon fill="#3B3B3B" points="183.511,51.776 194.178,53.776 203.752,58.803 202.845,57.943 189.512,50.943 178.845,48.943 
			146.845,63.943 157.556,63.943 		"/>
	</g>
	<g>
		<polygon points="1043.304,56.443 1020.735,48.443 1010.971,52.443 1008.637,63.943 1046.06,63.943 		"/>
		<polygon fill="#3B3B3B" points="1015.637,55.276 1025.401,51.276 1043.802,57.799 1043.304,56.443 1020.735,48.443 
			1010.971,52.443 1008.637,63.943 1013.879,63.943 		"/>
	</g>
	<g>
		<polygon points="1098.028,63.943 1142.364,63.943 1137.905,53.11 1119.324,49.276 1096.149,56.943 		"/>
		<polygon fill="#3B3B3B" points="1099.072,59.776 1122.247,52.109 1138.908,55.547 1137.905,53.11 1119.324,49.276 
			1096.149,56.943 1098.028,63.943 1100.191,63.943 		"/>
	</g>
	<g>
		<polygon points="857.971,73.375 836.971,48.208 816.37,48.208 809.637,57.875 812.304,73.375 		"/>
		<polygon fill="#3B3B3B" points="814.304,60.708 821.037,51.042 839.335,51.042 836.971,48.208 816.37,48.208 809.637,57.875 
			812.304,73.375 816.483,73.375 		"/>
	</g>
	<g>
		<polygon points="76.461,63.943 61.815,38.776 47.448,38.776 42.752,48.443 44.612,63.943 		"/>
		<polygon fill="#3B3B3B" points="46.007,51.276 50.703,41.609 63.464,41.609 61.815,38.776 47.448,38.776 42.752,48.443 
			44.612,63.943 47.527,63.943 		"/>
	</g>
	<polygon points="252.304,72.625 226.304,59.125 178.011,61.992 138.804,72.625 	"/>
	<polygon points="730.304,79.375 698.304,65.875 509.966,68.742 393.684,79.375 	"/>
	<path d="M703.304,74.125l32.333-5.049l81.333,7.715l53.667,2.583l80-6.75l17-3.549c0,0,58.165-8.285,58.582-8.285
		s38.418,0,38.418,0l24.333,15.333l-1.403,38.02H703.304V74.125z"/>
	<polygon points="768.179,75.125 803.944,69.076 912.137,70.125 959.401,83.125 951.971,85.884 	"/>
	<g>
		<polygon points="536.427,71.875 601.094,71.875 603.094,61.375 593.094,54.875 574.427,49.708 549.761,60.042 		"/>
		<polygon fill="#3B3B3B" points="554.427,62.875 579.094,52.542 597.224,57.56 593.094,54.875 574.427,49.708 549.761,60.042 
			536.427,71.875 544.286,71.875 		"/>
	</g>
	<g>
		<polygon points="718.637,73.208 789.423,73.208 782.304,62.375 752.637,58.542 715.637,66.208 		"/>
		<polygon fill="#3B3B3B" points="720.304,69.042 757.304,61.375 783.906,64.812 782.304,62.375 752.637,58.542 715.637,66.208 
			718.637,73.208 722.09,73.208 		"/>
	</g>
	<g>
		<polygon points="855.053,73.375 904.72,73.375 904.72,66.042 897.053,58.375 875.72,58.375 858.72,66.542 		"/>
		<polygon fill="#3B3B3B" points="863.387,69.375 880.387,61.208 899.887,61.208 897.053,58.375 875.72,58.375 858.72,66.542 
			855.053,73.375 861.24,73.375 		"/>
	</g>
</g>
<g id="Monstre">
</g>
<g id="Visage">
</g>
<g id="Tombes">
</g>
<g id="Fille_zombie">
</g>
<g id="Logo">
</g>
</svg>
