<?xml version="1.0" encoding="utf-8"?>
<!-- Generator: Adobe Illustrator 22.1.0, SVG Export Plug-In . SVG Version: 6.00 Build 0)  -->
<svg version="1.2" baseProfile="tiny" xmlns="http://www.w3.org/2000/svg" xmlns:xlink="http://www.w3.org/1999/xlink" x="0px"
	 y="0px" viewBox="0 0 1200 71.396" xml:space="preserve">
<g id="elements">
</g>
<g id="Franck">
</g>
<g id="Grotte">
	<g>
		<rect x="0" width="1200" height="28.436"/>
		<path fill="#212121" d="M0,14.177c19.361,0.047,42.072,0.097,70.315,0.097c144.418,0,144.418,3.006,288.835,3.006
			c144.417,0,144.417-3.006,288.835-3.006c144.414,0,144.414,3.006,288.829,3.006c135.195,0,144.381-5.799,263.186-3.09v43.904
			c-119.245,3.397-127.801,2.261-263.197,2.261c-144.418,0-144.418-3.006-288.835-3.006c-144.417,0-144.417,3.006-288.835,3.006
			c-144.415,0-144.415-3.006-288.829-3.006c-28.212,0-50.925,0.279-70.304,0.695L0,14.177z"/>
		<path fill="#404040" d="M840.85,35.723c-144.417,0-144.417-6-288.835-6c-144.414,0-144.414,6-288.829,6
			C127.992,35.723,118.805,24.148,0,29.555v36.963c119.245,6.781,127.801,4.513,263.197,4.513c144.418,0,144.418-6,288.835-6
			c144.417,0,144.417,6,288.835,6c144.414,0,144.414-6,288.829-6c28.212,0,50.925,0.557,70.304,1.388V29.53
			c-19.361,0.095-42.072,0.193-70.315,0.193C985.268,29.723,985.268,35.723,840.85,35.723z"/>
		<g>
			<path fill="#1F1F1F" d="M82.124,51.614c-0.109,2.868-3.277,5.193-7.077,5.193c-3.8,0-6.88-1.965-6.88-4.39
				c0-2.424,3.168-4.749,7.077-5.193C79.152,46.781,82.232,48.746,82.124,51.614z"/>
			<path fill="#1F1F1F" d="M589.073,49.388c-0.054,1.434-1.638,2.596-3.538,2.596s-3.44-0.983-3.44-2.195
				c0-1.212,1.584-2.375,3.538-2.596C587.587,46.971,589.127,47.954,589.073,49.388z"/>
			<path fill="#1F1F1F" d="M198.463,57.657c0.609,2.241-1.904,4.163-5.612,4.292s-6.714-1.77-6.714-4.242s2.512-4.393,5.612-4.292
				C194.848,53.517,197.854,55.416,198.463,57.657z"/>
			<path fill="#1F1F1F" d="M965.518,55.496c0.609,2.241-1.904,4.163-5.612,4.292s-6.714-1.77-6.714-4.242s2.512-4.393,5.612-4.292
				C961.903,51.356,964.909,53.255,965.518,55.496z"/>
			<path fill="#1F1F1F" d="M317.338,57.657c0.609,2.241-1.904,4.163-5.612,4.292c-3.708,0.129-6.714-1.77-6.714-4.242
				s2.512-4.393,5.612-4.292C313.723,53.517,316.729,55.416,317.338,57.657z"/>
			<path fill="#1F1F1F" d="M1163.422,53.385c0.609,2.241-1.904,4.163-5.612,4.292s-6.714-1.77-6.714-4.242s2.512-4.393,5.612-4.292
				C1159.807,49.245,1162.813,51.144,1163.422,53.385z"/>
			<path fill="#1F1F1F" d="M774.297,55.496c0.609,2.241-1.904,4.163-5.612,4.292s-6.714-1.77-6.714-4.242s2.512-4.393,5.612-4.292
				C770.682,51.356,773.688,53.255,774.297,55.496z"/>
			<path fill="#1F1F1F" d="M401.234,47.894c0.192,0.707-0.6,1.313-1.77,1.354c-1.17,0.041-2.118-0.558-2.118-1.338
				s0.793-1.386,1.77-1.354S401.042,47.187,401.234,47.894z"/>
			<path fill="#1F1F1F" d="M287.547,47.098c0.391,1.438-1.222,2.672-3.601,2.754c-2.38,0.083-4.309-1.136-4.309-2.722
				s1.612-2.819,3.601-2.754S287.157,45.66,287.547,47.098z"/>
			<path fill="#1F1F1F" d="M543.895,50.004c0.177,0.65-0.552,1.207-1.628,1.245s-1.947-0.513-1.947-1.23s0.729-1.274,1.628-1.245
				S543.718,49.354,543.895,50.004z"/>
			<path fill="#1F1F1F" d="M177.951,45.671c0.405,1.491-1.266,2.77-3.733,2.855s-4.213-0.974-3.9-2.367
				c0.313-1.393,1.984-2.671,3.733-2.855C175.8,43.12,177.546,44.18,177.951,45.671z"/>
			<path fill="#1F1F1F" d="M378.389,59.998c0.27,0.993-0.843,1.844-2.486,1.901c-1.643,0.057-2.805-0.648-2.597-1.576
				s1.321-1.779,2.486-1.901C376.956,58.3,378.119,59.005,378.389,59.998z"/>
			<path fill="#1F1F1F" d="M129.838,49.854c0.27,0.993-0.843,1.844-2.486,1.901s-2.805-0.648-2.597-1.576s1.321-1.779,2.486-1.901
				C128.405,48.156,129.568,48.861,129.838,49.854z"/>
			<path fill="#1F1F1F" d="M1121.79,46.236c0.27,0.993-0.843,1.844-2.486,1.901c-1.643,0.057-2.805-0.648-2.597-1.576
				c0.208-0.928,1.322-1.779,2.486-1.901C1120.358,44.537,1121.521,45.243,1121.79,46.236z"/>
			<path fill="#1F1F1F" d="M664.773,46.509c0.197,0.726-0.617,1.348-1.818,1.39c-1.201,0.042-2.051-0.474-1.899-1.152
				c0.152-0.678,0.966-1.3,1.818-1.39C663.725,45.268,664.575,45.783,664.773,46.509z"/>
			<path fill="#1F1F1F" d="M536.387,43.126c0.27,0.993-0.843,1.844-2.486,1.901s-2.805-0.648-2.597-1.576
				c0.208-0.928,1.321-1.779,2.486-1.901C534.955,41.428,536.118,42.133,536.387,43.126z"/>
			<path fill="#1F1F1F" d="M811.412,54.861c0.177,0.65-0.552,1.207-1.628,1.245s-1.947-0.513-1.947-1.23s0.729-1.274,1.628-1.245
				C810.363,53.66,811.235,54.211,811.412,54.861z"/>
			<path fill="#1F1F1F" d="M979.372,49.134c0.197,0.726-0.617,1.348-1.818,1.39c-1.201,0.042-2.051-0.474-1.899-1.152
				s0.966-1.3,1.818-1.39C978.325,47.892,979.175,48.408,979.372,49.134z"/>
			<path fill="#1F1F1F" d="M803.904,47.983c0.27,0.993-0.843,1.844-2.486,1.901c-1.643,0.057-2.805-0.648-2.597-1.576
				c0.208-0.928,1.321-1.779,2.486-1.901C802.472,46.285,803.634,46.99,803.904,47.983z"/>
		</g>
		<g>
			<path fill="#666666" d="M489.98,37.61c-5.568,2.488-8.012,9.082-5.677,14.716l1.595,3.849c0.365,0.88,1.374,1.298,2.254,0.933
				l1.935-0.802c1.051-0.435,2.255,0.063,2.69,1.114l0.63,1.52c0.244,0.588,0.918,0.868,1.507,0.624l0.035-0.014
				c0.588-0.244,0.868-0.918,0.624-1.507l-0.592-1.429c-0.182-0.439-0.032-0.971,0.387-1.196c0.482-0.259,1.069-0.041,1.273,0.451
				l0.612,1.477c0.244,0.588,0.918,0.868,1.507,0.624l0,0c0.588-0.244,0.868-0.918,0.624-1.507l-0.592-1.429
				c-0.182-0.439-0.032-0.971,0.387-1.195c0.482-0.259,1.069-0.041,1.273,0.452l0.612,1.477c0.244,0.588,0.918,0.868,1.507,0.624
				l0.035-0.014c0.588-0.244,0.868-0.918,0.624-1.507l-0.63-1.52c-0.435-1.051,0.063-2.255,1.114-2.69l1.935-0.802
				c0.88-0.365,1.298-1.374,0.933-2.254l-1.684-4.064C502.487,37.733,495.757,35.028,489.98,37.61z"/>
			<circle fill="#212121" cx="489.747" cy="49.189" r="2.411"/>
			<circle fill="#212121" cx="498.916" cy="45.389" r="2.411"/>
			<path fill="#212121" d="M497.403,50.431l-1.983-1.82c-0.345-0.317-0.902-0.085-0.922,0.382l-0.114,2.689
				c-0.02,0.478,0.537,0.753,0.904,0.445l0.645-0.542c0.087-0.073,0.193-0.117,0.306-0.127l0.84-0.074
				C497.556,51.344,497.756,50.755,497.403,50.431z"/>
		</g>
		<path fill="#666666" d="M464.617,42.678c-0.282-0.414-0.282-0.946,0-1.361c0.243-0.357,0.362-0.806,0.294-1.286
			c-0.108-0.755-0.711-1.387-1.461-1.523c-0.927-0.168-1.754,0.365-2.046,1.158c-0.13,0.353-0.473,0.58-0.849,0.58h-14.926v0
			l-5.314,0c-0.376,0-0.719-0.228-0.849-0.58c-0.293-0.793-1.119-1.327-2.046-1.159c-0.75,0.136-1.353,0.768-1.461,1.522
			c-0.069,0.48,0.05,0.929,0.294,1.287c0.282,0.414,0.282,0.946,0,1.361c-0.243,0.357-0.362,0.806-0.294,1.286
			c0.108,0.755,0.711,1.387,1.461,1.523c0.927,0.168,1.754-0.365,2.046-1.158c0.13-0.353,0.473-0.58,0.849-0.58h8.148v0l12.093,0
			c0.376,0,0.719,0.228,0.849,0.58c0.293,0.793,1.119,1.327,2.046,1.159c0.75-0.136,1.353-0.768,1.461-1.522
			C464.98,43.485,464.861,43.036,464.617,42.678z"/>
		<path fill="#666666" d="M441.501,57.029c-0.19-0.464-0.079-0.984,0.283-1.331c0.313-0.299,0.522-0.713,0.555-1.196
			c0.052-0.76-0.407-1.504-1.112-1.794c-0.872-0.358-1.791-0.008-2.243,0.707c-0.201,0.318-0.584,0.469-0.952,0.391l-14.599-3.107
			l0,0l-5.198-1.106c-0.368-0.078-0.656-0.372-0.71-0.744c-0.121-0.837-0.819-1.53-1.76-1.559c-0.762-0.023-1.484,0.469-1.746,1.185
			c-0.167,0.455-0.144,0.919,0.02,1.32c0.19,0.464,0.079,0.984-0.283,1.331c-0.313,0.299-0.522,0.713-0.555,1.196
			c-0.052,0.76,0.407,1.504,1.112,1.794c0.872,0.358,1.791,0.008,2.243-0.707c0.201-0.318,0.584-0.469,0.952-0.391l7.969,1.696l0,0
			l11.828,2.517c0.368,0.078,0.656,0.372,0.71,0.744c0.121,0.837,0.818,1.53,1.76,1.559c0.762,0.023,1.484-0.469,1.746-1.185
			C441.688,57.894,441.665,57.43,441.501,57.029z"/>
		<path fill="#666666" d="M889.205,51.408c-0.355-0.354-0.455-0.876-0.256-1.336c0.172-0.397,0.204-0.86,0.046-1.318
			c-0.248-0.721-0.96-1.228-1.722-1.22c-0.942,0.009-1.653,0.689-1.792,1.523c-0.061,0.371-0.356,0.659-0.725,0.73l-14.659,2.812v0
			l-5.219,1.001c-0.369,0.071-0.749-0.088-0.944-0.41c-0.437-0.724-1.349-1.092-2.228-0.752c-0.711,0.275-1.184,1.009-1.149,1.77
			c0.023,0.485,0.224,0.903,0.531,1.208c0.355,0.354,0.455,0.876,0.256,1.336c-0.172,0.397-0.204,0.86-0.046,1.318
			c0.248,0.721,0.96,1.228,1.722,1.22c0.942-0.009,1.653-0.689,1.792-1.523c0.061-0.371,0.356-0.659,0.725-0.73l8.002-1.535v0
			l11.877-2.278c0.369-0.071,0.749,0.088,0.943,0.41c0.437,0.724,1.349,1.092,2.228,0.752c0.711-0.275,1.184-1.009,1.148-1.77
			C889.713,52.132,889.512,51.713,889.205,51.408z"/>
	</g>
</g>
<g id="Monstre">
</g>
<g id="Visage">
</g>
<g id="Tombes">
</g>
<g id="Fille_zombie">
</g>
<g id="Logo">
</g>
</svg>
