<?xml version="1.0" encoding="utf-8"?>
<!-- Generator: Adobe Illustrator 22.1.0, SVG Export Plug-In . SVG Version: 6.00 Build 0)  -->
<svg version="1.1" id="Calque_1" xmlns="http://www.w3.org/2000/svg" xmlns:xlink="http://www.w3.org/1999/xlink" x="0px" y="0px"
	 viewBox="0 0 69.1 90.6" style="enable-background:new 0 0 69.1 90.6;" xml:space="preserve">
<style type="text/css">
	.st0{fill:#02ED93;}
</style>
<path class="st0" d="M69,53.9l-0.6-5.4l-0.8,0.1c-1.7,0.2-3,1.6-3,3.3l0,2.2l-0.1,0.2l-0.5-0.5c-0.2-0.2-0.5-0.2-0.7,0
	c-0.2,0.2-0.2,0.5,0,0.7l0.6,0.5l-0.4,0.5L62.9,55c-0.2-0.2-0.5-0.2-0.7,0c-0.2,0.2-0.2,0.5,0,0.7l0.5,0.5l-0.4,0.5l-0.5-0.4
	c-0.2-0.2-0.5-0.2-0.7,0c-0.2,0.2-0.2,0.5,0,0.7l0.5,0.5l-0.3,0.3l-0.2-0.1c-1-0.3-2.1-0.2-3,0.4c-0.3,0.2-0.3,0.5,0,0.7l1.6,1
	c0,0,0,0,0,0c-0.6,0.3-1.3,0.3-1.8-0.1l-3.4-2.5l1.6-0.6c0,0-1.8-0.2-3.1-0.5l-9.6-6.8c0,0-3.8-2.3-7.8-4.2
	c-2.3-1.2-4.7-2.1-6.3-2.7c-0.1-1-0.1-2.2-0.2-3.1c0-0.8-0.3-1.5-0.7-2.2c-0.5-0.8-1.4-1.1-2.3-0.9v-1.9c0-0.5-0.2-1.1-0.4-1.5
	l-5.4-8.3l7.6-0.8l-0.3,1.5c0,0,2.8-0.4,3.4-0.7c0.2-0.1,0.4-0.5,0.6-1.1L44.9,22v2.5c0,1.3,0.7,2.5,1.9,3l0.3,2.1
	c0,0.4,0.4,0.8,0.9,0.8h2.5c0-0.9-0.7-1.6-1.6-1.6h0l0.1-0.6c0-0.6,0.3-1.2,0.7-1.7c0.5-0.5,1.2-0.9,1.9-0.9l3.1-0.2v1.2l-0.4,0
	c-0.7,0.1-1.3,0.7-1.3,1.4l2.7-0.3c0.4,0,0.7-0.4,0.7-0.8v-2.3c0-0.4-0.3-0.8-0.7-0.8l-1.9-0.3c-0.9-0.1-1.7-0.5-2.3-1L48,19.9
	l-14.9-1.1c0-0.2,0.1-0.3,0.1-0.3l-3.7-0.3l-0.1,0.3L22.6,18l0.8-0.4l-1.3-0.8c-0.1,0-0.1-0.2,0-0.2l1.7-0.8l-0.6-1.5
	c0.4-0.4,0.9-0.7,1.5-0.8l0.1,0l-0.4-1.3c-0.2-0.6,0.1-1.2,0.7-1.4l0.5-0.2c0.4-1.4,0.5-2.8,0.2-4.1l1-0.2c0.1,0,0.1-0.1,0.1-0.2
	c0-0.1-0.1-0.1-0.2-0.1l-1,0.2c0-0.1-0.1-0.2-0.1-0.3l1.2-0.5c0.1,0,0.1-0.1,0.1-0.2S26.7,5,26.6,5l-1.1,0.5l0.4-0.4
	c0.1-0.1,0.1-0.2,0-0.2c-0.1-0.1-0.2-0.1-0.2,0l-0.3,0.3c-0.4-1.1-1.1-2.2-2-3L24,1.5c0.1-0.1,0.1-0.2,0-0.2c-0.1-0.1-0.2-0.1-0.2,0
	l-0.8,0.7c0,0,0,0,0,0l0.7-0.8c0.1-0.1,0-0.2,0-0.2c-0.1-0.1-0.2,0-0.2,0l-0.7,0.8c0,0-0.1-0.1-0.1-0.1L23,0.9c0-0.1,0-0.2-0.1-0.2
	c-0.1,0-0.2,0-0.2,0.1l-0.4,0.6c-0.6-0.4-1.2-0.7-1.8-1l0,0c-2.6-1-5.5-0.2-7.3,1.8L13,1.5c0-0.1-0.1-0.1-0.2-0.1
	c-0.1,0-0.1,0.1-0.1,0.2l0.4,0.9c0,0,0,0,0,0l-0.7-1.1c0-0.1-0.1-0.1-0.2,0c-0.1,0-0.1,0.1-0.1,0.2l0.7,1.2c0,0,0,0,0,0l-0.7-0.3
	c-0.1,0-0.2,0-0.2,0.1c0,0.1,0,0.2,0.1,0.2l0.6,0.3c-0.2,0.3-0.4,0.7-0.5,1.1l0,0c-0.6,1.6-0.5,3.3,0.1,4.8L12.1,11
	c-0.2,2.5-0.2,5-0.1,7.5c-1.9,1.2-3.2,3.3-3.2,5.7v11.1l-1.1,0l-0.2,3.6c0,0,0.6,0.1,1.3,0.2v10.3c-0.9,0.7-1.5,1.7-1.5,2.9v0.1H7.2
	c-1.4,0-2.5,1.1-2.5,2.5v4.7H1.8H1.2c-0.7,0-1.2,0.5-1.2,1.2V67c0,0.4,0.2,0.8,0.6,1v6.2c0,0.7,0.5,1.2,1.2,1.2h15.6
	c0,2,0,3.9,0,5.9l-0.1,0.4c-0.8,0.4-1.5,1.1-2,1.9c-0.9,1.4-1.3,3.1-1.2,4.8l0.1,2.3h12.9h7V89c0-1.1-0.8-2.1-1.9-2.4l-4.1-0.9
	L28,85.7l0.3-0.6c0.1-0.2,0-0.5-0.2-0.6c-0.2-0.1-0.5,0-0.6,0.2l-0.4,0.6L26.7,85l0.3-0.6c0.1-0.2,0-0.5-0.2-0.6
	c-0.2-0.1-0.5,0-0.6,0.2l-0.3,0.6l-0.5-0.2l0.3-0.5c0.1-0.2,0-0.5-0.2-0.6c-0.2-0.1-0.5,0-0.6,0.2L24.5,84l-0.3-0.2
	c0.1-1.1-0.3-2.2-1.1-3L23,80.7c-0.1-0.1-0.3-0.1-0.3,0.1l-0.7,2c-0.1,0.2-0.2,0.4-0.3,0.5L21.4,83c-0.3-0.3-0.5-0.8-0.6-1.2
	c0-0.3,0-0.6,0-0.9l1.9-10l1.1,0.8l-0.1-1.2c-0.1-0.5,0.4-1,0.9-0.9l0.6,0.1l-0.5-2.2c-0.3-1.2-0.2-2.5,0.1-3.8
	c0.8-3.1,2.3-9.3,3.5-13.8c2.2,1.1,5,2.6,6.3,3.1c2.3,0.9,8,2.5,8,2.5s5.1,3.1,8.1,4.2l0.8,2.9l0.2-1.2c0-0.2,0.3-0.3,0.5-0.2
	c0.4,0.3,0.8,0.7,0.8,0.6c0-0.1,0-0.5,0-1.2c1.6,0.8,3.4,1.9,4.6,2.6c0.1,1.3,0.8,2.4,1.9,3.1c1.3,0.8,2.7,1.5,4.1,1.8l2.3,0.6
	l2.7-10.2C69.1,57.1,69.2,55.5,69,53.9z M21.3,10.6c0.2-0.4,0.7-0.6,1.1-0.5c0.3,0.4,0.4,0.9,0.1,1.3s-0.8,0.6-1.3,0.4
	C21.1,11.4,21.1,11,21.3,10.6z M16.8,59.6H6v-4.7c0-0.6,0.5-1.1,1.1-1.1h0.1v2.3c0,0.8,0.6,1.4,1.4,1.4l3.8,0c0,0.5,0.4,0.8,0.9,0.8
	h0.3c0.5,0,0.9-0.4,0.9-0.9v-1.6c0.6,0,1.1-0.5,1.1-1.1l0-1h0.1c0.6,0,1.1,0.5,1.1,1.1V59.6z M19,58.1c-0.1,0.5-0.2,1-0.2,1.5h-0.6
	v-4.7c0-1.4-1.1-2.5-2.5-2.5h-0.1l0-0.1c0-1.1-0.6-2.1-1.6-2.5l-2.3-1c0.2-1.1,0.7-5.1,1.3-9.6c0.7-0.1,1.3-0.1,1.3-0.1l0.1-1.2
	l0.8,2c0.2,0.4,0.5,0.7,0.8,0.9l1.4,0.7l-0.6,1c-0.2,0.3-0.2,0.6-0.1,0.9c0.1,0.4,0.4,0.8,0.8,0.9l0.3,0.1l0.2,1
	c0.3,1.9,1.1,3.6,2.2,5.2L19,58.1z"/>
</svg>
