<svg viewBox="0 0 262.959 127.803" xmlns="http://www.w3.org/2000/svg"><path d="m262.959 41.541-3.359-2.594c-1.316-3.088-.018-6.5.965-9.348.774-4.733-2.298-10.782 2.182-14.35-1.952-1.67-1.959-4.991-4.667-5.826-4.639-3.08-9.889-5.32-14.515-8.689-6.206-.112-11.492-1.487-17.901-.163-2.354 1.057-3.614 3.604-6.509 3.773-7.323 2.441-9.381 10.298-11.95 16.546l-1.82 35.891-1.377-.848c-1.235-2.214-.532-4.881-.02-7.098.204-3.617-2.585-7.915.495-10.953-1.599-1.099-1.87-3.593-3.97-4.004-3.73-1.944-7.852-3.207-11.595-5.369-4.67.411-8.751-.201-13.459 1.305-1.683.982-2.427 2.995-4.588 3.353-5.306 2.417-6.225 8.483-7.657 13.381l.471 8.533c-2.691-1.705-5.645-3.068-8.271-5.013-3.881-.101-7.18-.987-11.195-.191-1.477.65-2.278 2.236-4.089 2.328-3.588 1.165-5.181 4.414-6.488 7.637-.578-.903-1.55-1.581-2.7-1.797-2.978.812-6.678-.361-9.114 1.985-1.264 4.603-.632 10.017-2.256 14.528.361 3.158-2.166 5.866-1.173 9.024-1.083 4.422-1.715 9.204-2.617 13.807-.451.451-.271 1.444-1.173 1.354-1.083-2.256-.091-5.324-.902-7.49.722-2.346.541-4.963-.181-7.309-.993-1.534-1.896-3.43-.542-5.054-.09-4.964-2.616-8.482-2.165-13.446.541-2.797-.361-5.324-2.798-7.038l-5.505-.451-4.368.843c-.064-.984-.052-2.03-.866-2.681.841-3.675-4.28-4.47-5.075-7.836-2.331-.527-4.077-2.389-6.6-2.56-6.304-.473-12.269-.303-18.134-.4-1.833.844-1.451 3.023-2.223 4.533.238 2.699.363 5.523.403 8.375l-.146-.404c-1.167-.911-2.97-1.105-4.506-.847-1.794-1.367-3.881.151-5.951-.586-5.695 1.22-11.371.004-17.152.682-3.361 2.863-.238 7.759-1.351 11.632l-.354 10.917c.878 3.165-.144 7.128.464 10.291l-.204 3.38c-.193-1.013-.547-1.971-1.284-2.815-4.166-.292-9.308-2.534-12.416 1.198-.92 4.28 2.762 10.822-2.653 13.286-11.064 1.145-3.476-10.613-6.669-16.181 2.058-5.226-1.409-10.873-.076-16.162-1.036-1.134-.009-2.618-.057-3.88-2.32-3.975.785-7.796.533-12.031.313-1.276 1.655-1.598 3.001-1.831 2.397-1.085 2.958 1.784 4.178 3.001 1.106 2.938.786 6.382.893 9.178.308.981 1.494 1.297 2.146 1.814 3.894.303 7.315-.009 10.613-1.128 2.363-4.334-1.306-8.168-.316-12.991-.58-.972-1.703-2.013-1.12-3.3-.946-1.137-1.299-3.292-3.18-2.858-3.922-3.372-8.857-4.899-13.705-4.172-4.287 1.248-8.279 3.116-11.88 5.782l-2.994 4.359c-.399 1.37-.421 3.177-1.097 4.377-1.316 5.739 1.385 10.242.069 15.981 1.525 2.109-.557 4.356.612 6.569-.747 4.092.782 8.64.302 12.632-.138 1.089.731 2.591-.133 3.617.852 3.4.613 6.569 2.443 9.57 1.879 1.915 2.991 5.033 5.832 6.098 5.524 2.77 12.37 2.327 17.986.396 4.165.292 4.159-4.584 7.642-5.62.138-.386.579-.768.94-1.178-.278 3.282-.571 6.604-.333 9.887-.378 2.162-.306 4.599.129 6.679.712 1.449 2.514 1.824 4.046 2.106 2.261-.615 4.955 1.03 7.4-.034 4.326.844 8.57.425 13.081.64 2.078-.436 4.698-.686 6.69-1.573 2.635-2.327-1.048-4.611-1.663-6.871-4.743-5.271-12.18-.363-18.113-3.295-2.236-2.815 1.924-3.956 1.582-6.306 1.184-1.525-.34-2.89-.509-4.426.47-2.523-1.503-4.162-1.303-6.688.904-.264 1.186-1.706 2.266-1.336 2.785 1.645 5.602-.95 8.205.964 1.45-.801 3.074-.788 4.348-2.133.636-.717-.164-2.166.474-3.064 2.897-1.242-.703-2.623-.871-4.158-2.667-5.434-8.567-.877-12.522-2.982-3.333-.838-.423-3.793-.228-5.597.296-3.427-2.918-7.874.621-10.644 5.069-2.038 10.912.985 16.075-1.413l.092-.181c-.093 2.276-.226 4.516-.399 6.658.557 5.164-1.327 10.431.131 15.624-2.26 2.907-.051 7.221-1.502 10.244 2 5.21-2.279 9.137.003 13.995 3.003 2.083 7.452 1.322 10.652.071 1.126-1.318 1.271-3.029 1.415-4.739-.573-1.825-.664-4.626-.51-6.608.244-4.778-.406-9.854-.346-14.548l1.026-1.05c.73-.248 2.197-.923 2.516.351.952 4.093.994 8.429 2.676 12.275.659 4.806.48 10.398 2.866 14.808 4.065-.05 8.927 3.175 12.371-.055.791-2.142-2.201-4.585.377-6.128-3.568-1.378-1.896-5.658-3.982-8.163.679-4.312-2.018-7.468-2.153-11.716-.704-3.363 3.587-4.851 4.843-7.429 1.064-2.224.514-4.769 1.22-7.094 1.045-1.591.387-3.599.54-5.58-.058-1.461.067-2.735.399-3.997.495 1.82 1.248 3.571 1.499 5.379 1.444 9.385 3.79 18.589 5.144 27.794 1.174 8.753 3.249 17.326 4.332 25.989.902 1.715.451 4.782 3.158 5.144 2.888-1.354 5.054 0 8.212-.541 1.264-1.625 3.52-1.625 4.331-3.43.903-1.715.993-4.061.542-5.595 1.895-.902.361-2.526.361-4.061 1.714-1.174.631-3.159.631-4.873 1.985-2.888.993-6.317 2.437-9.386-2.437-3.158 1.985-5.414.091-8.663 2.888-4.963 1.805-11.1 2.707-16.784.35-.274.607-.586.804-.922l-1.634 27.865c.184 5.43.963 11.612 5.697 14.556 2.012 3.171 6.246 1.573 8.655 4.041 5.764.374 11.184-1.436 15.679-4.647 2.597-5.023 5.684-10.833 3.365-16.91 1.679-2.899.059-6.683 1.741-9.672-1.938-1.895-.939-3.646-.193-5.576l.571 10.357c.964 6.49 2.746 13.802 8.83 16.687 2.849 3.53 7.711 1.031 10.939 3.663 6.968-.34 13.224-3.255 18.177-7.724 1.011-2.657 2.099-5.49 2.771-8.395 1.369 3.493 3.493 6.524 6.818 8.555 3.257 5.045 10.009 2.435 13.89 6.351 9.221.526 17.864-2.437 25.01-7.628 4.089-8.063 8.953-17.392 5.166-27.08 2.648-4.657.008-10.686 2.662-15.487-4.86-4.679 1.668-8.884.31-14.429 2.362-1.202 2.338-4.091 2.583-6.536zm-226.869 63.532c0-1.559.048-3.078.346-4.463-.011 1.514-.104 3.047-.224 4.594-.039-.044-.074-.086-.122-.131zm47.824-31.868c-.922 3.401-4.474 1.572-6.747 2.041-2.607-.354-.886-3.369-.575-4.623l-.111-4.969c1.269-2.938-1.285-7.806 2.382-9.494 1.557-.672 3.447-.522 4.483.957 1.922 4.846 2.982 11.2.568 16.088zm68.694 8.078c-.886 8.811.869 19.016-3.244 27.307-1.338 1.47-3.325 1.462-4.912.661-3.281-1.246-.888-5.826-2.3-8.335 1.656-4.256-.19-8.955 1.375-13.214.255-1.523 1.246-3.281.042-4.515.584-2.682 1.19-5.815.679-8.279-.578-2.92-1.266-7.29 1.463-9.505.436-1.515-1.503-2.514-.17-3.893 1.004-.221 1.86-1.083 2.523-1.682 2.514.304 4.985 1.51 4.937 4.309.352 5.709.153 11.571-.393 17.146zm37.067 18.277c-1.404 1.947-3.79 2.21-5.803 1.466-4.108-1.046-1.863-6.87-3.902-9.687 1.404-5.333-1.454-10.719-.16-16.044.097-1.863 1.046-4.108-.568-5.424.333-3.299.632-7.14-.319-10.028-1.094-3.424-2.518-8.574.454-11.606.315-1.877-2.148-2.81-.737-4.648 1.175-.403 2.084-1.555 2.796-2.364 3.059.02 6.189 1.129 6.515 4.494 1.203 6.803 1.767 13.865 1.876 20.63.143 10.694 3.647 22.7-.152 33.211zm15.107-30.887-.133 2.63c-.2-.845-.085-1.723.133-2.63zm34.693-17.996c-1.306 14.099 1.629 30.394-4.842 43.702-2.12 2.367-5.298 2.379-7.845 1.119-5.262-1.951-1.493-9.304-3.783-13.298 2.594-6.825-.417-14.315 2.032-21.145.39-2.439 1.951-5.262.01-7.22.9-4.296 1.83-9.312.981-13.246-.962-4.661-2.117-11.64 2.22-15.216.677-2.427-2.435-4-.32-6.222 1.603-.366 2.961-1.756 4.012-2.722 4.024.454 7.99 2.352 7.949 6.827.633 9.125.388 18.501-.414 27.421z" fill="#635771"/></svg>